<svg xmlns="http://www.w3.org/2000/svg" version="1.1" xmlns:xlink="http://www.w3.org/1999/xlink" xmlns:svgjs="http://svgjs.dev/svgjs" width="1000" height="1000" viewBox="0 0 1000 1000"><rect width="1000" height="1000" fill="#000000"></rect><g transform="matrix(0.7,0,0,0.7,149.5757575843208,414.9834378978089)"><svg viewBox="0 0 396 96" data-background-color="#ffffff" preserveAspectRatio="xMidYMid meet" height="242" width="1000" xmlns="http://www.w3.org/2000/svg" xmlns:xlink="http://www.w3.org/1999/xlink"><g id="tight-bounds" transform="matrix(1,0,0,1,0.24000000484443262,0.17939764941172598)"><svg viewBox="0 0 395.52 95.64120470117653" height="95.64120470117653" width="395.52"><g><svg viewBox="0 0 537.4571373727542 129.96320816539225" height="95.64120470117653" width="395.52"><g transform="matrix(1,0,0,1,0,17.961630072062178)"><svg viewBox="0 0 395.52 94.03994802126789" height="94.03994802126789" width="395.52"><g><svg viewBox="0 0 395.52 94.03994802126789" height="94.03994802126789" width="395.52"><g><svg viewBox="0 0 395.52 50.720654396728015" height="50.720654396728015" width="395.52"><g transform="matrix(1,0,0,1,0,0)"><svg width="395.52" viewBox="0.24000000953674316 -36.25 286.5 36.7400016784668" height="50.720654396728015" data-palette-color="#755bb4"><path d="M14.36-33.35L14.36 0 11.84 0 11.84-33.35 0.24-33.35 0.24-35.69 25.95-35.69 25.95-33.35 14.36-33.35ZM57.1-35.69L57.1 0 54.59 0 54.59-17.55 33.74-17.55 33.74 0 31.25 0 31.25-35.69 33.74-35.69 33.74-19.85 54.59-19.85 54.59-35.69 57.1-35.69ZM69.7 0L67.21 0 67.21-35.69 69.7-35.69 69.7 0ZM101.95 0L96.99-12.6 82.49-12.6 77.51 0 74.75 0 89.1-35.84 90.69-35.84 104.75 0 101.95 0ZM88.4-27.66L83.39-14.84 96.16-14.84 91.3-27.71Q90.69-29.22 89.84-31.91L89.84-31.91Q89.18-29.57 88.4-27.66L88.4-27.66ZM123.84-15.65L123.84-17.99 137-17.99 137-1.71Q131.83 0.49 125.36 0.49L125.36 0.49Q116.91 0.49 112.4-4.28 107.9-9.06 107.9-17.8L107.9-17.8Q107.9-23.24 110.13-27.45 112.37-31.67 116.53-33.96 120.69-36.25 126.09-36.25L126.09-36.25Q131.92-36.25 136.56-34.11L136.56-34.11 135.56-31.86Q130.92-34.01 125.94-34.01L125.94-34.01Q118.89-34.01 114.75-29.65 110.61-25.29 110.61-17.9L110.61-17.9Q110.61-9.84 114.54-5.77 118.47-1.71 126.09-1.71L126.09-1.71Q131.02-1.71 134.46-3.1L134.46-3.1 134.46-15.65 123.84-15.65ZM175.96-17.9L175.96-17.9Q175.96-9.4 171.72-4.46 167.47 0.49 160 0.49L160 0.49Q152.55 0.49 148.3-4.46 144.05-9.4 144.05-17.94L144.05-17.94Q144.05-26.46 148.34-31.36 152.62-36.25 160.05-36.25L160.05-36.25Q167.52-36.25 171.74-31.34 175.96-26.42 175.96-17.9ZM146.76-17.9L146.76-17.9Q146.76-10.23 150.18-6.04 153.6-1.86 160-1.86L160-1.86Q166.44-1.86 169.85-6.01 173.25-10.16 173.25-17.9L173.25-17.9Q173.25-25.61 169.85-29.72 166.44-33.84 160.05-33.84L160.05-33.84Q153.67-33.84 150.22-29.69 146.76-25.54 146.76-17.9ZM208.5-15.55L199.64-15.55 199.64 0 197.15 0 197.15-35.69 205.65-35.69Q212.29-35.69 215.46-33.24 218.63-30.79 218.63-25.85L218.63-25.85Q218.63-22.27 216.74-19.8 214.85-17.33 210.99-16.26L210.99-16.26 220.69 0 217.71 0 208.5-15.55ZM199.64-33.45L199.64-17.7 206.45-17.7Q210.97-17.7 213.46-19.71 215.95-21.73 215.95-25.66L215.95-25.66Q215.95-29.74 213.51-31.59 211.07-33.45 205.55-33.45L205.55-33.45 199.64-33.45ZM246.37-2.29L246.37 0 226.86 0 226.86-35.69 246.37-35.69 246.37-33.4 229.35-33.4 229.35-19.9 245.41-19.9 245.41-17.6 229.35-17.6 229.35-2.29 246.37-2.29ZM256.94 0L254.45 0 254.45-35.69 256.94-35.69 256.94 0ZM286.74-9.2L286.74-9.2Q286.74-4.74 283.46-2.12 280.18 0.49 274.73 0.49L274.73 0.49Q268.19 0.49 264.7-0.95L264.7-0.95 264.7-3.44Q268.55-1.81 274.54-1.81L274.54-1.81Q278.93-1.81 281.51-3.82 284.08-5.83 284.08-9.11L284.08-9.11Q284.08-11.13 283.23-12.46 282.37-13.79 280.44-14.89 278.52-15.99 274.78-17.26L274.78-17.26Q269.31-19.14 267.22-21.33 265.14-23.51 265.14-27.15L265.14-27.15Q265.14-31.15 268.27-33.68 271.41-36.21 276.34-36.21L276.34-36.21Q281.37-36.21 285.79-34.3L285.79-34.3 284.89-32.15Q280.44-34.01 276.39-34.01L276.39-34.01Q272.44-34.01 270.09-32.18 267.75-30.35 267.75-27.2L267.75-27.2Q267.75-25.22 268.47-23.95 269.19-22.68 270.82-21.67 272.46-20.65 276.44-19.24L276.44-19.24Q280.61-17.8 282.71-16.44 284.81-15.09 285.78-13.37 286.74-11.65 286.74-9.2Z" opacity="1" transform="matrix(1,0,0,1,0,0)" fill="#ffffff" class="undefined-text-0" data-fill-palette-color="primary" id="text-0"></path></svg></g></svg></g><g transform="matrix(1,0,0,1,242.02749652576216,62.69458360408998)"><svg viewBox="0 0 153.49250347423782 31.345364417177908" height="31.345364417177908" width="153.49250347423782"><g transform="matrix(1,0,0,1,0,0)"><svg width="153.49250347423782" viewBox="5.050000190734863 -37.9900016784668 217.80999755859375 44.480003356933594" height="31.345364417177908" data-palette-color="#755bb4"><path d="M7.54-15.94L7.54 0 5.05 0 5.05-35.69 24.61-35.69 24.61-33.4 7.54-33.4 7.54-18.26 23.66-18.26 23.66-15.94 7.54-15.94ZM39.99-27.05L39.99-27.05Q41.67-27.05 43.6-26.71L43.6-26.71 43.14-24.39Q41.48-24.8 39.69-24.8L39.69-24.8Q36.3-24.8 34.13-21.92 31.96-19.04 31.96-14.65L31.96-14.65 31.96 0 29.54 0 29.54-26.54 31.59-26.54 31.83-21.75 32-21.75Q33.64-24.68 35.5-25.87 37.35-27.05 39.99-27.05ZM70.94-13.31L70.94-13.31Q70.94-6.81 67.79-3.16 64.64 0.49 59.1 0.49L59.1 0.49Q55.61 0.49 52.95-1.2 50.29-2.88 48.87-6.03 47.46-9.18 47.46-13.31L47.46-13.31Q47.46-19.8 50.61-23.43 53.75-27.05 59.25-27.05L59.25-27.05Q64.72-27.05 67.83-23.38 70.94-19.7 70.94-13.31ZM50-13.31L50-13.31Q50-7.84 52.4-4.77 54.8-1.71 59.2-1.71L59.2-1.71Q63.59-1.71 66-4.77 68.4-7.84 68.4-13.31L68.4-13.31Q68.4-18.8 65.97-21.83 63.54-24.85 59.15-24.85L59.15-24.85Q54.76-24.85 52.38-21.84 50-18.82 50-13.31ZM99.19 0L96.79 0 96.79-17.21Q96.79-21.22 95.11-23.03 93.43-24.85 89.89-24.85L89.89-24.85Q85.12-24.85 82.91-22.45 80.71-20.04 80.71-14.65L80.71-14.65 80.71 0 78.29 0 78.29-26.54 80.34-26.54 80.8-22.9 80.95-22.9Q83.54-27.05 90.15-27.05L90.15-27.05Q99.19-27.05 99.19-17.36L99.19-17.36 99.19 0ZM114.78-1.66L114.78-1.66Q117.08-1.66 118.79-2.05L118.79-2.05 118.79-0.1Q117.03 0.49 114.74 0.49L114.74 0.49Q111.22 0.49 109.55-1.39 107.88-3.27 107.88-7.3L107.88-7.3 107.88-24.44 103.95-24.44 103.95-25.85 107.88-26.95 109.1-32.96 110.34-32.96 110.34-26.54 118.13-26.54 118.13-24.44 110.34-24.44 110.34-7.64Q110.34-4.59 111.42-3.13 112.49-1.66 114.78-1.66ZM140.73 4.49L140.73 6.49 119.98 6.49 119.98 4.49 140.73 4.49ZM155.8 0.49L155.8 0.49Q150.01 0.49 146.77-3.08 143.54-6.64 143.54-13.06L143.54-13.06Q143.54-19.41 146.66-23.23 149.79-27.05 155.09-27.05L155.09-27.05Q159.78-27.05 162.49-23.78 165.19-20.51 165.19-14.89L165.19-14.89 165.19-12.94 146.08-12.94Q146.13-7.47 148.63-4.59 151.13-1.71 155.8-1.71L155.8-1.71Q158.07-1.71 159.79-2.03 161.51-2.34 164.15-3.39L164.15-3.39 164.15-1.2Q161.9-0.22 159.99 0.13 158.09 0.49 155.8 0.49ZM155.09-24.9L155.09-24.9Q151.25-24.9 148.94-22.38 146.62-19.85 146.23-15.09L146.23-15.09 162.63-15.09Q162.63-19.7 160.63-22.3 158.63-24.9 155.09-24.9ZM193.42 0L191.02 0 191.02-17.21Q191.02-21.22 189.34-23.03 187.65-24.85 184.11-24.85L184.11-24.85Q179.35-24.85 177.14-22.45 174.93-20.04 174.93-14.65L174.93-14.65 174.93 0 172.52 0 172.52-26.54 174.57-26.54 175.03-22.9 175.18-22.9Q177.77-27.05 184.38-27.05L184.38-27.05Q193.42-27.05 193.42-17.36L193.42-17.36 193.42 0ZM211.72-27.05L211.72-27.05Q214.6-27.05 216.7-26 218.8-24.95 220.46-22.41L220.46-22.41 220.61-22.41Q220.46-25.49 220.46-28.44L220.46-28.44 220.46-37.99 222.86-37.99 222.86 0 221.27 0 220.66-4.05 220.46-4.05Q217.44 0.49 211.77 0.49L211.77 0.49Q206.28 0.49 203.37-2.93 200.47-6.35 200.47-12.89L200.47-12.89Q200.47-19.78 203.35-23.41 206.23-27.05 211.72-27.05ZM211.72-24.85L211.72-24.85Q207.38-24.85 205.19-21.8 203.01-18.75 203.01-12.94L203.01-12.94Q203.01-1.66 211.77-1.66L211.77-1.66Q216.26-1.66 218.36-4.27 220.46-6.88 220.46-12.89L220.46-12.89 220.46-13.31Q220.46-19.46 218.4-22.16 216.34-24.85 211.72-24.85Z" opacity="1" transform="matrix(1,0,0,1,0,0)" fill="#ffffff" class="undefined-text-1" data-fill-palette-color="secondary" id="text-1"></path></svg></g></svg></g></svg></g></svg></g><g transform="matrix(1,0,0,1,407.49392920736193,0)"><svg viewBox="0 0 129.96320816539225 129.96320816539225" height="129.96320816539225" width="129.96320816539225"><g data-palette-color="#755bb4"><rect width="35.52327689854055" height="129.96320816539225" fill="#ffffff" stroke="transparent" data-fill-palette-color="accent" x="0" fill-opacity="1"></rect><rect width="35.52327689854055" height="129.96320816539225" fill="#ffffff" stroke="transparent" data-fill-palette-color="accent" x="43.32106938846408" fill-opacity="0.75"></rect><rect width="35.52327689854055" height="129.96320816539225" fill="#ffffff" stroke="transparent" data-fill-palette-color="accent" x="86.64213877692816" fill-opacity="0.5"></rect></g></svg></g></svg></g><defs></defs></svg><rect width="395.52" height="95.64120470117653" fill="none" stroke="none" visibility="hidden"></rect></g></svg></g></svg>